<svg xmlns="http://www.w3.org/2000/svg" viewBox="0 0 1699.08 436.33"><defs><style>.cls-1{fill:#009444;}.cls-2{fill:#00a651;}.cls-3{fill:#ed1c24;}</style></defs><g id="Layer_2" data-name="Layer 2"><g id="Layer_1-2" data-name="Layer 1"><path class="cls-1" d="M867.56,6.59h50V246.45H867.23L767,86.54h-7V246.45H710V6.59h50.3L860.9,166.5h6.66Z"/><path class="cls-1" d="M1199.87,178.33a118.86,118.86,0,0,1-25.82,39.47,110,110,0,0,1-38.81,25,141.85,141.85,0,0,1-97.61,0,111.76,111.76,0,0,1-39-25,115.56,115.56,0,0,1-25.82-39.47q-9.33-23.16-9.32-51.81,0-29,9.32-52a115.94,115.94,0,0,1,25.82-39.31,112,112,0,0,1,39-25,141.85,141.85,0,0,1,97.61,0,112,112,0,0,1,39,25A115.94,115.94,0,0,1,1200,74.55q9.32,23,9.33,52Q1209.37,155.19,1199.87,178.33ZM1018.31,158.5A79.77,79.77,0,0,0,1033.47,184a67.18,67.18,0,0,0,23.15,16.82,71.71,71.71,0,0,0,29.48,6,72.61,72.61,0,0,0,29.82-6A67.28,67.28,0,0,0,1139.07,184a80,80,0,0,0,15.16-25.49,90.24,90.24,0,0,0,5.5-32,94.5,94.5,0,0,0-5.33-32.15,75.8,75.8,0,0,0-15-25.48,68,68,0,0,0-23.32-16.66,76.26,76.26,0,0,0-59.3,0,67.82,67.82,0,0,0-23.32,16.66,77.5,77.5,0,0,0-15.16,25.48,91.71,91.71,0,0,0-5.5,32.15A90.24,90.24,0,0,0,1018.31,158.5Z"/><path class="cls-1" d="M1346.62,206.81a48.75,48.75,0,0,0,19-3.5,35.38,35.38,0,0,0,14-10.49,47,47,0,0,0,8.49-17.49,91.53,91.53,0,0,0,2.84-23.82V6.59h50V151.51q0,24.32-6.17,43t-18.15,31.32A76.54,76.54,0,0,1,1386.93,245q-17.67,6.5-40.31,6.5t-40.15-6.5A76.71,76.71,0,0,1,1277,225.8q-12-12.66-18.15-31.32t-6.17-43V6.59h49.64V151.51a86.77,86.77,0,0,0,3,23.82,48.75,48.75,0,0,0,8.66,17.49,35.51,35.51,0,0,0,13.83,10.49A47.43,47.43,0,0,0,1346.62,206.81Z"/><path class="cls-1" d="M1649.11,6.59h50V246.45h-50.3L1548.5,86.54h-7V246.45h-50V6.59h50.31L1642.45,166.5h6.66Z"/><path d="M763,326.81h-2L723.23,432.29H708.72l44.34-117.38h17.77l44.51,117.38H800.83ZM735.94,388.6h52l3.42,11.57H732.68Z"/><path d="M910.21,432.29V314.91h13.7V432.29Zm7.34,0V419.57h60.32v12.72Z"/><path d="M1113,422.34a32.6,32.6,0,0,0,12.3-2.2,25.64,25.64,0,0,0,9.38-6.44,28,28,0,0,0,6-10.43,45.3,45.3,0,0,0,2-14.18V314.91h13.69v74.18a57.72,57.72,0,0,1-3,19.4,40.21,40.21,0,0,1-8.55,14.34,35.6,35.6,0,0,1-13.62,8.89,56.86,56.86,0,0,1-36.51,0,35.6,35.6,0,0,1-13.62-8.89,40.23,40.23,0,0,1-8.56-14.34,57.73,57.73,0,0,1-3-19.4V314.91h13.69v74.18a43.82,43.82,0,0,0,2.12,14.18,29.59,29.59,0,0,0,6,10.43,24.82,24.82,0,0,0,9.29,6.44A33.11,33.11,0,0,0,1113,422.34Z"/><path d="M1324.46,409h-9.3l-40.1-72.05h-2.12v95.37h-13.69V314.91h15.65l43.85,78.25h2.12l44-78.25h15.48V432.29h-13.69V336.92h-2Z"/><path d="M1566.06,314.91h13.85V432.29h-14.18l-65.21-95.37h-2v95.37h-13.69V314.91h14l65.21,95.37h2Z"/><path d="M1685.06,314.91h14V432.29h-14Z"/><circle class="cls-2" cx="171.33" cy="113.19" r="68.03"/><path class="cls-3" d="M252.49,303.06c-56.68.59-114.71,6.3-167.4,28.1-11.89,5.33-35.85,17.12-35.53,31.29,4.28,23.4,70.21,34.56,91.4,37.67,55.15,7.75,111.79,8.75,167.51,5.54,36.65-2.53,74.35-6.45,109.32-17.42,12-4,41.76-14.71,37-30.11-2-5.49-6.29-9.61-11.16-13.45a115,115,0,0,0-23.75-13.47c-52.68-21.82-110.7-27.57-167.38-28.15Zm0,0c51,.05,175.45,4.49,210.16,42.27,14.68,16.94,5.07,35.37-10.77,46.89-49.32,35-139.89,43.94-199.39,44.11-59.5-.23-150-9.21-199.35-44.18-15.67-11.39-25.48-29.81-10.76-46.78,34.71-37.77,159.05-42.26,210.11-42.31Z"/><path class="cls-2" d="M639.87,3C479,22.39,346.46,133.59,296.11,282.66a413.52,413.52,0,0,0-18.38,79.79,417.84,417.84,0,0,0-82.13-79.78A413.62,413.62,0,0,0,0,205.23a419,419,0,0,1,50.26-3A414.11,414.11,0,0,1,214.61,236C281.67,96.37,424.38,0,589.61,0A419.09,419.09,0,0,1,639.87,3Z"/></g></g></svg>