<svg xmlns="http://www.w3.org/2000/svg" viewBox="0 0 1704.23 436.33"><g id="Layer_2" data-name="Layer 2"><g id="Layer_1-2" data-name="Layer 1"><path d="M870.86,6.26h50.08v240.4H870.52L770,86.39h-7V246.66H712.93V6.26h50.41L864.18,166.52h6.68Z"/><path d="M1203.91,178.38A119.2,119.2,0,0,1,1178,217.94a110.24,110.24,0,0,1-38.9,25,142.17,142.17,0,0,1-97.83,0,112,112,0,0,1-39.06-25,115.6,115.6,0,0,1-25.88-39.56Q967,155.18,967,126.46q0-29.05,9.35-52.09A116.07,116.07,0,0,1,1002.24,35a112.27,112.27,0,0,1,39.06-25,142.17,142.17,0,0,1,97.83,0,112.22,112.22,0,0,1,39.07,25,116.2,116.2,0,0,1,25.87,39.4q9.35,23,9.35,52.09Q1213.42,155.17,1203.91,178.38Zm-182-19.87a80,80,0,0,0,15.19,25.54,67.22,67.22,0,0,0,23.2,16.86,71.91,71.91,0,0,0,29.55,6,72.75,72.75,0,0,0,29.89-6,67.32,67.32,0,0,0,23.2-16.86,80.15,80.15,0,0,0,15.19-25.54,90.41,90.41,0,0,0,5.51-32,94.59,94.59,0,0,0-5.34-32.22,75.72,75.72,0,0,0-15-25.54A68,68,0,0,0,1119.93,52a76.46,76.46,0,0,0-59.43,0,67.89,67.89,0,0,0-23.37,16.7,77.74,77.74,0,0,0-15.19,25.54,91.8,91.8,0,0,0-5.51,32.22A90.41,90.41,0,0,0,1021.94,158.51Z"/><path d="M1351,206.92a48.74,48.74,0,0,0,19-3.5,35.48,35.48,0,0,0,14-10.52,46.91,46.91,0,0,0,8.52-17.53,91.87,91.87,0,0,0,2.84-23.87V6.26h50.08V151.5q0,24.38-6.18,43.07T1421.1,226a76.69,76.69,0,0,1-29.72,19.19q-17.7,6.51-40.4,6.51t-40.23-6.51A76.8,76.8,0,0,1,1281.2,226q-12-12.69-18.2-31.39t-6.18-43.07V6.26h49.75V151.5a86.7,86.7,0,0,0,3,23.87,48.65,48.65,0,0,0,8.68,17.53,35.68,35.68,0,0,0,13.86,10.52A47.42,47.42,0,0,0,1351,206.92Z"/><path d="M1654.15,6.26h50.08v240.4h-50.42L1553.31,86.39h-7V246.66h-50.08V6.26h50.42l100.83,160.26h6.68Z"/><path d="M766.06,327.19h-2L726.2,432.91H711.66L756.1,315.27h17.81l44.6,117.64H804Zm-27.12,61.93h52.12l3.43,11.6H735.67Z"/><path d="M913.6,432.91V315.27h13.73V432.91Zm7.35,0V420.16h60.46v12.75Z"/><path d="M1116.86,422.94a32.76,32.76,0,0,0,12.33-2.21,25.74,25.74,0,0,0,9.4-6.45,28.15,28.15,0,0,0,6-10.46,45.46,45.46,0,0,0,2-14.21V315.27h13.73v74.34a57.67,57.67,0,0,1-3,19.44,40.2,40.2,0,0,1-8.57,14.38,35.54,35.54,0,0,1-13.65,8.9,56.75,56.75,0,0,1-36.59,0,35.47,35.47,0,0,1-13.65-8.9,40.36,40.36,0,0,1-8.58-14.38,57.93,57.93,0,0,1-3-19.44V315.27H1087v74.34a43.69,43.69,0,0,0,2.12,14.21,29.59,29.59,0,0,0,6,10.46,25,25,0,0,0,9.32,6.45A33.18,33.18,0,0,0,1116.86,422.94Z"/><path d="M1328.77,409.54h-9.31l-40.2-72.22h-2.12v95.59h-13.73V315.27h15.69l44,78.42h2.12l44.12-78.42h15.52V432.91h-13.72V337.32h-2Z"/><path d="M1570.91,315.27h13.89V432.91h-14.22l-65.35-95.59h-2v95.59h-13.73V315.27h14L1569,410.85h2Z"/><path d="M1690.18,315.27h14V432.91h-14Z"/><circle cx="171.33" cy="113.19" r="68.03"/><path d="M252.49,303.06c-56.68.59-114.71,6.3-167.4,28.1-11.89,5.33-35.85,17.12-35.53,31.29,4.28,23.4,70.21,34.56,91.4,37.67,55.15,7.75,111.79,8.75,167.51,5.54,36.65-2.53,74.35-6.45,109.32-17.42,12-4,41.76-14.71,37-30.11-2-5.49-6.29-9.61-11.16-13.45a115,115,0,0,0-23.75-13.47c-52.68-21.82-110.7-27.57-167.38-28.15Zm0,0c51,.05,175.45,4.49,210.16,42.27,14.68,16.94,5.07,35.37-10.77,46.89-49.32,35-139.89,43.94-199.39,44.11-59.5-.23-150-9.21-199.35-44.18-15.67-11.39-25.48-29.81-10.76-46.78,34.71-37.77,159.05-42.26,210.11-42.31Z"/><path d="M639.87,3C479,22.39,346.46,133.59,296.11,282.66a413.52,413.52,0,0,0-18.38,79.79,417.84,417.84,0,0,0-82.13-79.78A413.62,413.62,0,0,0,0,205.23a419,419,0,0,1,50.26-3A414.11,414.11,0,0,1,214.61,236C281.67,96.37,424.38,0,589.61,0A419.09,419.09,0,0,1,639.87,3Z"/></g></g></svg>