<svg xmlns="http://www.w3.org/2000/svg" viewBox="0 0 1533.72 1045.85"><g id="Layer_2" data-name="Layer 2"><g id="Layer_1-2" data-name="Layer 1"><circle cx="410.68" cy="271.3" r="163.06"/><path d="M605.19,726.42c-135.85,1.4-274.94,15.1-401.24,67.35-28.49,12.77-85.92,41-85.15,75,10.25,56.1,168.27,82.85,219.07,90.28,132.2,18.58,268,21,401.52,13.29,87.83-6.06,178.2-15.45,262-41.75,28.7-9.58,100.1-35.27,88.68-72.17-4.71-13.16-15.08-23-26.76-32.24-16.74-12.85-36.53-23.34-56.93-32.3-126.27-52.3-265.35-66.07-401.21-67.46Zm0,0c122.26.12,420.56,10.76,503.75,101.31,35.18,40.62,12.16,84.78-25.81,112.39C964.92,1024,747.82,1045.45,605.2,1045.85c-142.62-.54-359.61-22.06-477.83-105.89-37.56-27.3-61.08-71.44-25.78-112.13,83.2-90.53,381.23-101.3,503.6-101.41Z"/><path d="M1533.72,7.23c-385.51,46.44-703.28,313-824,670.28A990.47,990.47,0,0,0,665.7,868.77,1002.07,1002.07,0,0,0,468.84,677.54,991.12,991.12,0,0,0,0,491.93a1001.91,1001.91,0,0,1,120.46-7.22,992.8,992.8,0,0,1,394,80.9C675.15,231,1017.22,0,1413.26,0A1002.27,1002.27,0,0,1,1533.72,7.23Z"/></g></g></svg>